<?xml version="1.0" standalone="no"?>
<!DOCTYPE svg PUBLIC "-//W3C//DTD SVG 20010904//EN"
 "http://www.w3.org/TR/2001/REC-SVG-20010904/DTD/svg10.dtd">
<svg version="1.0" xmlns="http://www.w3.org/2000/svg" width="1280" height="320" viewBox="0 0 1280 320">
<metadata>Created by potrace 1.15, written by Peter Selinger 2001-2017</metadata>
<g transform="translate(0,480) scale(0.1,-0.1)" fill="white" stroke="none">
<path d="M2353 4440 c-584 -39 -1251 -213 -1727 -452 -157 -79 -257 -150 -359 -258 -302 -318 -345 -587 -140 -892 71 -106 219 -256 315 -320 162 -108 402 -217 693 -314 817 -272 1667 -326 2205 -139 253 89 459 219 755 480 291 256 371 314 490 355 105 36 170 39 599 30 226 -5 632 -14 901 -20 698 -15 1348 -28 1885 -40 503 -11 1115 -24 1880 -40 267 -6 679 -15 915 -20 1554 -34 1596 -34 1673 -17 155 35 265 118 325 244 29 62 32 77 32 163 0 86 -3 101 -32 163 -60 126 -170 209 -325 244 -77 17 -119 17 -1673 -17 -236 -5 -648 -14 -915 -20 -765 -16 -1377 -29 -1880 -40 -537 -12 -1187 -25 -1885 -40 -269 -6 -675 -15 -901 -20 -429 -9 -494 -6 -599 30 -119 41 -199 99 -490 355 -296 261 -502 391 -755 480 -253 88 -633 128 -987 105z"/>
</g>
</svg>

